# xmcd CD database file
#
# Track frame offsets:
#	150
#	25919
#	72516
#	93725
#	117962
#	136526
#	156778
#	186380
#	204254
#	234553
#	256673
#
# Disc length: 3759 seconds
#
# Revision: 0
# Processed by: cddbd v1.4PL0 Copyright (c) Steve Scherf et al.
# Submitted via: CDex 1.50
#
DISCID=910ead0b
DTITLE=Monty Alexander Trio - Impressions in Blue
DYEAR=2003
DGENRE=Jazz
TTITLE0=Blue Rhapsody
TTITLE1=En Aranjuez con tu amor
TTITLE2=Come Sunday - David Danced
TTITLE3=Creole Love Call
TTITLE4=Accompong
TTITLE5=Pointe-à-Pitre
TTITLE6=Eleuthra
TTITLE7=Jumpin' at Capitol
TTITLE8=It's only a Paper Moon
TTITLE9=Body and Soul
TTITLE10=I'm an old cowhand
EXTD=YEAR: 2003
EXTT0=
EXTT1=
EXTT2=
EXTT3=
EXTT4=
EXTT5=
EXTT6=
EXTT7=
EXTT8=
EXTT9=
EXTT10=
PLAYORDER=
